<?xml version="1.0" encoding="UTF-8"?>
<svg width="300px" height="104px" viewBox="0 0 300 104" version="1.1" xmlns="http://www.w3.org/2000/svg" xmlns:xlink="http://www.w3.org/1999/xlink">
    <!-- Generator: sketchtool 52.4 (67378) - http://www.bohemiancoding.com/sketch -->
    <title>34A5A805-18F1-4FDC-8972-530A4B64C5AD</title>
    <desc>Created with sketchtool.</desc>
    <g id="Symbols" stroke="none" stroke-width="1" fill="none" fill-rule="evenodd">
        <g id="Components/Footer" transform="translate(-1003.000000, -64.000000)">
            <g id="Footer">
                <g id="Components/Navigation/TOP-Header---Sales-Man">
                    <g id="TOP-Header">
                        <g id="Group-7" transform="translate(1003.000000, 64.000000)">
                            <g id="Assets/Logo/Logo-Light-Text">
                                <g id="logo-copy">
                                    <path d="M65.2084757,0 L0.147641832,0 L0.147641832,71.0583732 L4.67532468,71.0583732 C13.0909091,64.1913876 21.949419,58.1205742 31.1032126,52.7961722 L21.7033493,52.7961722 L21.7033493,17.6650718 L59.9425837,17.6650718 C69.1455913,17.6650718 72.7382092,20.3023923 72.7382092,30.4038278 L72.7382092,34.5837321 C79.8250171,32.3942584 87.0594668,30.6028708 94.2939166,29.2095694 L94.2939166,24.7311005 C94.3431306,7.16555024 86.7641832,0 65.2084757,0 Z" id="XMLID_151_" fill="#47B5D3"></path>
                                    <path d="M65.2084757,71.0583732 C86.7641832,71.0583732 94.3431306,63.892823 94.3431306,46.3272727 L94.3431306,43.9885167 C72.9350649,49.462201 52.2159945,58.4688995 33.1209843,71.0583732 L65.2084757,71.0583732 Z" id="XMLID_150_" fill="#47B5D3"></path>
                                    <path d="M161.766234,38.4650718 L157.435407,34.7827751 L164.620643,28.2143541 L195.477785,0 L166.146275,0 L139.324675,25.7263158 C135.830485,25.6267943 132.336295,25.5770335 128.842105,25.6267943 L128.842105,0 L107.286398,0 L107.286398,27.169378 C102.955571,27.7167464 98.5755297,28.4133971 94.2939166,29.2095694 L94.2939166,43.938756 C98.6247437,42.8440191 102.955571,41.8985646 107.286398,41.0526316 L107.286398,71.0086124 L128.842105,71.0086124 L128.842105,43.7894737 L138.340396,43.7894737 L169.394395,71.0583732 L199.90704,71.0583732 L161.766234,38.4650718 Z" id="XMLID_149_" fill="#47B5D3"></path>
                                    <g id="XMLID_58_" transform="translate(0.000000, 84.095694)" fill="#FFFFFF">
                                        <g id="XMLID_348_">
                                            <path d="M1.32877649,19.2574163 C1.18113465,19.4066986 0.984278879,19.4564593 0.787423103,19.4564593 C0.541353383,19.4564593 0.393711552,19.4066986 0.24606972,19.2574163 C0.0984278879,19.108134 0.049213944,18.9090909 0.049213944,18.7100478 L0.049213944,1.14449761 C0.049213944,0.945454545 0.0984278879,0.746411483 0.24606972,0.597129187 C0.393711552,0.44784689 0.590567327,0.398086124 0.787423103,0.398086124 C0.984278879,0.398086124 1.18113465,0.44784689 1.32877649,0.597129187 C1.47641832,0.746411483 1.52563226,0.945454545 1.52563226,1.14449761 L1.52563226,18.7100478 C1.52563226,18.9588517 1.47641832,19.108134 1.32877649,19.2574163 Z" id="XMLID_387_"></path>
                                            <path d="M16.2898154,12.6392344 C16.1421736,12.7885167 15.9453178,12.8382775 15.7484621,12.8382775 L6.10252905,12.8382775 C6.10252905,13.8832536 6.29938483,14.7789474 6.74231032,15.6248804 C7.13602187,16.4210526 7.77580314,17.0679426 8.5140123,17.5655502 C9.30143541,18.0631579 10.1872864,18.262201 11.2699932,18.262201 C12.1066302,18.262201 12.7956254,18.1129187 13.4846206,17.7645933 C14.1244019,17.4162679 14.6657553,16.9684211 15.0594668,16.4708134 C15.2563226,16.3215311 15.4039645,16.2220096 15.6008202,16.2220096 C15.7484621,16.2220096 15.9453178,16.2717703 16.0437457,16.4210526 C16.1913876,16.5703349 16.2406015,16.7196172 16.2406015,16.8688995 C16.2406015,17.0679426 16.1421736,17.2172249 15.9945318,17.4162679 C15.4531784,18.0631579 14.7641832,18.6602871 13.9275461,19.0583732 C13.0909091,19.5062201 12.2050581,19.7052632 11.3192071,19.7052632 C9.99043062,19.7052632 8.85850991,19.4066986 7.82501709,18.8593301 C6.84073821,18.3119617 6.05331511,17.5157895 5.46274778,16.4708134 C4.9213944,15.4258373 4.62611073,14.2813397 4.62611073,12.937799 C4.62611073,11.5444976 4.9213944,10.3004785 5.46274778,9.25550239 C6.00410116,8.21052632 6.74231032,7.3645933 7.67737526,6.81722488 C8.61244019,6.26985646 9.59671907,5.97129187 10.6302119,5.97129187 C11.6637047,5.97129187 12.5987697,6.22009569 13.4846206,6.71770335 C14.3704716,7.215311 15.1086808,7.91196172 15.6500342,8.85741627 C16.1913876,9.80287081 16.4866712,10.8976077 16.5358852,12.1416268 C16.4866712,12.3406699 16.4374573,12.4899522 16.2898154,12.6392344 Z M7.82501709,8.50909091 C6.98838004,9.20574163 6.44702666,10.2009569 6.20095694,11.4947368 L14.911825,11.4947368 L14.911825,11.2956938 C14.8133971,10.4995215 14.5673274,9.85263158 14.1244019,9.25550239 C13.6814764,8.65837321 13.189337,8.26028708 12.5495557,7.96172249 C11.9097744,7.66315789 11.2699932,7.5138756 10.5809979,7.5138756 C9.59671907,7.46411483 8.66165414,7.81244019 7.82501709,8.50909091 Z" id="XMLID_384_" fill-rule="nonzero"></path>
                                            <path d="M29.872864,6.22009569 C30.0205058,6.31961722 30.1189337,6.51866029 30.1189337,6.66794258 C30.1189337,6.81722488 30.0697198,6.96650718 30.0205058,7.11578947 L25.0006835,19.0086124 C24.9514696,19.1578947 24.8530417,19.2574163 24.7053999,19.3569378 C24.557758,19.4564593 24.4593301,19.5062201 24.3116883,19.5062201 C24.1640465,19.5062201 23.9671907,19.5062201 23.8687628,19.4066986 C23.721121,19.307177 23.6226931,19.2076555 23.5734792,19.0086124 L18.5536569,7.11578947 C18.5536569,7.06602871 18.5536569,7.01626794 18.5044429,6.96650718 C18.455229,6.91674641 18.455229,6.81722488 18.455229,6.76746411 C18.455229,6.56842105 18.5044429,6.36937799 18.6520848,6.22009569 C18.7997266,6.0708134 18.9965824,6.02105263 19.2426521,6.02105263 C19.3902939,6.02105263 19.5379357,6.0708134 19.6855776,6.17033493 C19.8332194,6.26985646 19.9316473,6.36937799 19.9808612,6.56842105 L24.3116883,17.0181818 L28.6917293,6.56842105 C28.7409433,6.41913876 28.8393712,6.26985646 28.987013,6.17033493 C29.1346548,6.0708134 29.2822967,6.02105263 29.4299385,6.0708134 C29.5775803,6.02105263 29.7252221,6.0708134 29.872864,6.22009569 Z" id="XMLID_382_"></path>
                                            <path d="M43.7019822,12.6392344 C43.5543404,12.7885167 43.3574846,12.8382775 43.1606288,12.8382775 L33.5146958,12.8382775 C33.5146958,13.8832536 33.7115516,14.7789474 34.1544771,15.6248804 C34.5481887,16.4210526 35.1879699,17.0679426 35.9261791,17.5655502 C36.7136022,18.0631579 37.5994532,18.262201 38.6821599,18.262201 C39.518797,18.262201 40.2077922,18.1129187 40.8967874,17.7645933 C41.5365687,17.4162679 42.0779221,16.9684211 42.4716336,16.4708134 C42.6684894,16.3215311 42.8161312,16.2220096 43.012987,16.2220096 C43.1606288,16.2220096 43.3574846,16.2717703 43.4559125,16.4210526 C43.6035543,16.5703349 43.6527683,16.7196172 43.6527683,16.8688995 C43.6527683,17.0679426 43.5543404,17.2172249 43.4066986,17.4162679 C42.8653452,18.0631579 42.17635,18.6602871 41.3397129,19.0583732 C40.5030759,19.5062201 39.6172249,19.7052632 38.7313739,19.7052632 C37.4025974,19.7052632 36.2706767,19.4066986 35.2371839,18.8593301 C34.252905,18.3119617 33.4654819,17.5157895 32.8749146,16.4708134 C32.3335612,15.4258373 32.0382775,14.2813397 32.0382775,12.937799 C32.0382775,11.5444976 32.3335612,10.3004785 32.8749146,9.25550239 C33.4162679,8.21052632 34.1544771,7.3645933 35.089542,6.81722488 C36.024607,6.26985646 37.0088859,5.97129187 38.0423787,5.97129187 C39.0758715,5.97129187 40.0109364,6.22009569 40.8967874,6.71770335 C41.7826384,7.215311 42.5208476,7.91196172 43.062201,8.85741627 C43.6035543,9.80287081 43.898838,10.8976077 43.9480519,12.1416268 C43.9480519,12.3406699 43.898838,12.4899522 43.7019822,12.6392344 Z M35.2863978,8.50909091 C34.4497608,9.20574163 33.9084074,10.2009569 33.6623377,11.4947368 L42.3732057,11.4947368 L42.3732057,11.2956938 C42.2747779,10.4995215 42.0287081,9.85263158 41.5857826,9.25550239 C41.1428571,8.65837321 40.6507177,8.26028708 40.0109364,7.96172249 C39.3711552,7.66315789 38.7313739,7.5138756 38.0423787,7.5138756 C37.0580998,7.46411483 36.1230349,7.81244019 35.2863978,8.50909091 Z" id="XMLID_379_" fill-rule="nonzero"></path>
                                            <path d="M54.1353383,6.17033493 C54.430622,6.31961722 54.5290499,6.51866029 54.5290499,6.76746411 C54.5290499,7.01626794 54.479836,7.215311 54.3321941,7.3645933 C54.1845523,7.5138756 54.0369105,7.56363636 53.8400547,7.56363636 C53.7416268,7.56363636 53.593985,7.5138756 53.3479152,7.41435407 C53.1018455,7.31483254 52.8557758,7.26507177 52.65892,7.26507177 C52.0191388,7.26507177 51.3793575,7.5138756 50.7887902,8.01148325 C50.1490089,8.50909091 49.6568694,9.15598086 49.2631579,9.90239234 C48.8694463,10.6985646 48.6725906,11.4449761 48.6725906,12.2411483 L48.6725906,18.6105263 C48.6725906,18.8593301 48.6233766,19.0086124 48.4757348,19.1578947 C48.328093,19.307177 48.1312372,19.3569378 47.9343814,19.3569378 C47.7375256,19.3569378 47.5406699,19.307177 47.393028,19.1578947 C47.2453862,19.0086124 47.1961722,18.8095694 47.1961722,18.6105263 L47.1961722,7.06602871 C47.1961722,6.86698565 47.2453862,6.66794258 47.393028,6.51866029 C47.5406699,6.36937799 47.7375256,6.31961722 47.9343814,6.31961722 C48.1312372,6.31961722 48.328093,6.36937799 48.4757348,6.51866029 C48.6233766,6.66794258 48.6725906,6.86698565 48.6725906,7.06602871 L48.6725906,9.35502392 C49.0663021,8.35980861 49.6568694,7.56363636 50.4442925,6.91674641 C51.2317157,6.26985646 52.1667806,5.9215311 53.2494874,5.9215311 C53.544771,5.97129187 53.8892686,6.0708134 54.1353383,6.17033493 Z" id="XMLID_377_"></path>
                                            <path d="M67.1770335,12.6392344 C67.0293917,12.7885167 66.8325359,12.8382775 66.6356801,12.8382775 L56.9897471,12.8382775 C56.9897471,13.8832536 57.1866029,14.7789474 57.6295284,15.6248804 C58.0232399,16.4210526 58.6630212,17.0679426 59.4012303,17.5655502 C60.1886535,18.0631579 61.0745044,18.262201 62.1572112,18.262201 C62.9938483,18.262201 63.6828435,18.1129187 64.3718387,17.7645933 C65.01162,17.4162679 65.5529733,16.9684211 65.9466849,16.4708134 C66.1435407,16.3215311 66.2911825,16.2220096 66.4880383,16.2220096 C66.6356801,16.2220096 66.8325359,16.2717703 66.9309638,16.4210526 C67.0786056,16.5703349 67.1278195,16.7196172 67.1278195,16.8688995 C67.1278195,17.0679426 67.0293917,17.2172249 66.8817498,17.4162679 C66.3403964,18.0631579 65.6514012,18.6602871 64.8147642,19.0583732 C63.9781271,19.5062201 63.0922761,19.7052632 62.2064252,19.7052632 C60.8776487,19.7052632 59.745728,19.4066986 58.7122351,18.8593301 C57.7279563,18.3119617 56.9405332,17.5157895 56.3499658,16.4708134 C55.8086124,15.4258373 55.5133288,14.2813397 55.5133288,12.937799 C55.5133288,11.5444976 55.8086124,10.3004785 56.3499658,9.25550239 C56.8913192,8.21052632 57.6295284,7.3645933 58.5645933,6.81722488 C59.4996582,6.26985646 60.4839371,5.97129187 61.5174299,5.97129187 C62.5509228,5.97129187 63.4859877,6.22009569 64.3718387,6.71770335 C65.2576897,7.215311 65.9958988,7.91196172 66.5372522,8.85741627 C67.0786056,9.80287081 67.3738893,10.8976077 67.4231032,12.1416268 C67.4231032,12.3406699 67.3738893,12.4899522 67.1770335,12.6392344 Z M58.7614491,8.50909091 C57.924812,9.20574163 57.3834586,10.2009569 57.1373889,11.4947368 L65.848257,11.4947368 L65.848257,11.2956938 C65.7498291,10.4995215 65.5037594,9.85263158 65.0608339,9.25550239 C64.6179084,8.65837321 64.125769,8.26028708 63.4859877,7.96172249 C62.8462064,7.66315789 62.2064252,7.5138756 61.5174299,7.5138756 C60.5331511,7.46411483 59.5980861,7.81244019 58.7614491,8.50909091 Z" id="XMLID_374_" fill-rule="nonzero"></path>
                                            <path d="M77.6103896,6.17033493 C77.9056733,6.31961722 78.0041012,6.51866029 78.0041012,6.76746411 C78.0041012,7.01626794 77.9548872,7.215311 77.8072454,7.3645933 C77.6596036,7.5138756 77.5119617,7.56363636 77.3151059,7.56363636 C77.2166781,7.56363636 77.0690362,7.5138756 76.8229665,7.41435407 C76.5768968,7.31483254 76.3308271,7.26507177 76.1339713,7.26507177 C75.49419,7.26507177 74.8544087,7.5138756 74.2638414,8.01148325 C73.6240602,8.50909091 73.1319207,9.15598086 72.7382092,9.90239234 C72.3444976,10.6985646 72.1476418,11.4449761 72.1476418,12.2411483 L72.1476418,18.6105263 C72.1476418,18.8593301 72.0984279,19.0086124 71.9507861,19.1578947 C71.8031442,19.307177 71.6062884,19.3569378 71.4094327,19.3569378 C71.2125769,19.3569378 71.0157211,19.307177 70.8680793,19.1578947 C70.7204375,19.0086124 70.6712235,18.8095694 70.6712235,18.6105263 L70.6712235,7.06602871 C70.6712235,6.86698565 70.7204375,6.66794258 70.8680793,6.51866029 C71.0157211,6.36937799 71.2125769,6.31961722 71.4094327,6.31961722 C71.6062884,6.31961722 71.8031442,6.36937799 71.9507861,6.51866029 C72.0984279,6.66794258 72.1476418,6.86698565 72.1476418,7.06602871 L72.1476418,9.35502392 C72.5413534,8.35980861 73.1319207,7.56363636 73.9193438,6.91674641 C74.7067669,6.26985646 75.6418319,5.9215311 76.7245386,5.9215311 C77.0198223,5.97129187 77.3643199,6.0708134 77.6103896,6.17033493 Z" id="XMLID_372_"></path>
                                            <path d="M90.7012987,2.38851675 C90.406015,2.73684211 90.2583732,3.23444976 90.2583732,3.88133971 L90.2583732,6.51866029 L93.112782,6.51866029 C93.3096377,6.51866029 93.4572796,6.56842105 93.6049214,6.71770335 C93.7525632,6.86698565 93.8017772,7.01626794 93.8017772,7.215311 C93.8017772,7.41435407 93.7525632,7.61339713 93.6049214,7.71291866 C93.4572796,7.86220096 93.3096377,7.91196172 93.112782,7.91196172 L90.2583732,7.91196172 L90.2583732,18.6105263 C90.2583732,18.8593301 90.2091593,19.0086124 90.0615174,19.1578947 C89.9138756,19.307177 89.7170198,19.3569378 89.520164,19.3569378 C89.3233083,19.3569378 89.1264525,19.307177 88.9788107,19.1578947 C88.8311688,19.0086124 88.7819549,18.8095694 88.7819549,18.6105263 L88.7819549,7.91196172 L86.911825,7.91196172 C86.7149692,7.91196172 86.5181135,7.86220096 86.4196856,7.71291866 C86.2720437,7.56363636 86.2228298,7.41435407 86.2228298,7.215311 C86.2228298,7.01626794 86.2720437,6.81722488 86.4196856,6.66794258 C86.5673274,6.51866029 86.7149692,6.46889952 86.911825,6.46889952 L88.7819549,6.46889952 L88.7819549,3.83157895 C88.7819549,2.73684211 89.0772386,1.89090909 89.7170198,1.2937799 C90.3568011,0.696650718 91.1442242,0.398086124 92.226931,0.398086124 C92.7190704,0.398086124 93.1619959,0.44784689 93.5557075,0.597129187 C93.949419,0.746411483 94.1462748,0.995215311 94.1462748,1.2937799 C94.1462748,1.49282297 94.0970608,1.69186603 93.949419,1.79138756 C93.8017772,1.94066986 93.6541353,1.99043062 93.5064935,1.99043062 C93.3588517,1.99043062 93.1619959,1.94066986 92.9651401,1.84114833 C92.5714286,1.74162679 92.2761449,1.69186603 92.0792891,1.69186603 C91.3902939,1.84114833 90.9965824,2.04019139 90.7012987,2.38851675 Z" id="XMLID_370_"></path>
                                            <path d="M107.630895,16.3712919 C107.089542,17.4162679 106.302119,18.262201 105.31784,18.8593301 C104.333561,19.4564593 103.250854,19.7550239 102.020506,19.7550239 C100.790157,19.7550239 99.7074504,19.4564593 98.7231716,18.8593301 C97.7388927,18.262201 96.9514696,17.4660287 96.4101162,16.3712919 C95.8687628,15.3263158 95.5734792,14.1320574 95.5734792,12.8382775 C95.5734792,11.5444976 95.8687628,10.4 96.4101162,9.30526316 C96.9514696,8.26028708 97.7388927,7.41435407 98.7231716,6.81722488 C99.7074504,6.22009569 100.790157,5.9215311 102.020506,5.9215311 C103.250854,5.9215311 104.333561,6.22009569 105.31784,6.81722488 C106.302119,7.41435407 107.089542,8.26028708 107.630895,9.30526316 C108.172249,10.3502392 108.467532,11.5444976 108.467532,12.8382775 C108.467532,14.1818182 108.172249,15.3263158 107.630895,16.3712919 Z M106.302119,10.1014354 C105.859193,9.25550239 105.268626,8.60861244 104.530417,8.16076555 C103.792208,7.66315789 102.955571,7.46411483 102.020506,7.46411483 C101.085441,7.46411483 100.248804,7.71291866 99.5105947,8.16076555 C98.7723855,8.65837321 98.1818182,9.30526316 97.7388927,10.1014354 C97.2959672,10.9473684 97.0991114,11.8430622 97.0991114,12.8880383 C97.0991114,13.8832536 97.2959672,14.8287081 97.7388927,15.6746411 C98.1818182,16.5205742 98.7723855,17.1674641 99.5105947,17.615311 C100.248804,18.1129187 101.085441,18.3119617 102.020506,18.3119617 C102.955571,18.3119617 103.792208,18.0631579 104.530417,17.615311 C105.268626,17.1674641 105.859193,16.5205742 106.302119,15.6746411 C106.745044,14.8287081 106.9419,13.9330144 106.9419,12.8880383 C106.9419,11.8430622 106.745044,10.8976077 106.302119,10.1014354 Z" id="XMLID_367_" fill-rule="nonzero"></path>
                                            <path d="M118.654819,6.17033493 C118.950103,6.31961722 119.04853,6.51866029 119.04853,6.76746411 C119.04853,7.01626794 118.999316,7.215311 118.851675,7.3645933 C118.704033,7.5138756 118.556391,7.56363636 118.359535,7.56363636 C118.261107,7.56363636 118.113465,7.5138756 117.867396,7.41435407 C117.621326,7.31483254 117.375256,7.26507177 117.178401,7.26507177 C116.538619,7.26507177 115.898838,7.5138756 115.308271,8.01148325 C114.668489,8.50909091 114.17635,9.15598086 113.782638,9.90239234 C113.388927,10.6985646 113.192071,11.4449761 113.192071,12.2411483 L113.192071,18.6105263 C113.192071,18.8593301 113.142857,19.0086124 112.995215,19.1578947 C112.847573,19.307177 112.650718,19.3569378 112.453862,19.3569378 C112.257006,19.3569378 112.06015,19.307177 111.912509,19.1578947 C111.764867,19.0086124 111.715653,18.8095694 111.715653,18.6105263 L111.715653,7.06602871 C111.715653,6.86698565 111.764867,6.66794258 111.912509,6.51866029 C112.06015,6.36937799 112.257006,6.31961722 112.453862,6.31961722 C112.650718,6.31961722 112.847573,6.36937799 112.995215,6.51866029 C113.142857,6.66794258 113.192071,6.86698565 113.192071,7.06602871 L113.192071,9.35502392 C113.585783,8.35980861 114.17635,7.56363636 114.963773,6.91674641 C115.751196,6.26985646 116.686261,5.9215311 117.768968,5.9215311 C118.064252,5.97129187 118.359535,6.0708134 118.654819,6.17033493 Z" id="XMLID_365_"></path>
                                            <path d="M120.475735,16.8191388 C120.475735,16.6200957 120.574163,16.4210526 120.820232,16.3215311 C120.91866,16.2220096 121.066302,16.1722488 121.213944,16.1722488 C121.4108,16.1722488 121.607656,16.2717703 121.755297,16.4210526 C122.739576,17.7645933 124.117567,18.4114833 125.741627,18.4114833 C126.578264,18.4114833 127.267259,18.2124402 127.857826,17.8143541 C128.448394,17.4162679 128.743677,16.8688995 128.743677,16.122488 C128.743677,15.3760766 128.448394,14.8784689 127.90704,14.4803828 C127.365687,14.1320574 126.578264,13.8334928 125.544771,13.5349282 C124.117567,13.1866029 123.03486,12.6889952 122.247437,12.1416268 C121.460014,11.5444976 121.066302,10.6985646 121.066302,9.60382775 C121.066302,8.90717703 121.263158,8.26028708 121.656869,7.71291866 C122.050581,7.16555024 122.591934,6.71770335 123.231716,6.41913876 C123.920711,6.12057416 124.65892,5.97129187 125.495557,5.97129187 C126.233766,5.97129187 126.971975,6.12057416 127.710185,6.41913876 C128.448394,6.71770335 129.088175,7.16555024 129.629528,7.76267943 C129.77717,7.86220096 129.875598,8.06124402 129.875598,8.26028708 C129.875598,8.45933014 129.77717,8.65837321 129.629528,8.8076555 C129.5311,8.90717703 129.334245,8.9569378 129.186603,8.9569378 C129.038961,8.9569378 128.842105,8.90717703 128.743677,8.75789474 C128.349966,8.31004785 127.857826,7.96172249 127.267259,7.71291866 C126.725906,7.46411483 126.086124,7.3645933 125.446343,7.3645933 C124.65892,7.3645933 123.969925,7.56363636 123.379357,7.91196172 C122.78879,8.31004785 122.54272,8.85741627 122.54272,9.60382775 C122.591934,10.3004785 122.887218,10.7980861 123.477785,11.1961722 C124.068353,11.5942584 124.90499,11.892823 126.086124,12.1913876 C126.971975,12.4401914 127.710185,12.6889952 128.300752,12.937799 C128.891319,13.2363636 129.334245,13.584689 129.727956,14.0822967 C130.072454,14.5799043 130.26931,15.2267943 130.26931,16.0727273 C130.26931,17.1674641 129.826384,18.0631579 128.940533,18.7598086 C128.054682,19.4066986 126.971975,19.7550239 125.643199,19.7550239 C123.576213,19.7550239 121.902939,18.9588517 120.672591,17.4162679 C120.574163,17.1674641 120.475735,16.9684211 120.475735,16.8191388 Z" id="XMLID_363_"></path>
                                            <path d="M144,18.7100478 C144,18.9588517 143.901572,19.108134 143.75393,19.2574163 C143.557075,19.4066986 143.409433,19.4564593 143.261791,19.4564593 C143.064935,19.4564593 142.868079,19.3569378 142.720437,19.1578947 L137.060834,13.1368421 L135.14149,14.7789474 L135.14149,18.6602871 C135.14149,18.9090909 135.092276,19.0583732 134.944634,19.2076555 C134.796992,19.3569378 134.600137,19.4066986 134.403281,19.4066986 C134.157211,19.4066986 134.009569,19.3569378 133.861928,19.2076555 C133.714286,19.0583732 133.665072,18.8593301 133.665072,18.6602871 L133.665072,1.09473684 C133.665072,0.89569378 133.714286,0.696650718 133.861928,0.547368421 C134.009569,0.398086124 134.206425,0.348325359 134.403281,0.348325359 C134.600137,0.348325359 134.796992,0.398086124 134.944634,0.547368421 C135.092276,0.696650718 135.14149,0.89569378 135.14149,1.09473684 L135.14149,12.937799 L142.523582,6.51866029 C142.671224,6.36937799 142.868079,6.26985646 143.064935,6.26985646 C143.261791,6.26985646 143.409433,6.36937799 143.557075,6.51866029 C143.704716,6.66794258 143.803144,6.86698565 143.803144,7.06602871 C143.803144,7.26507177 143.704716,7.46411483 143.507861,7.66315789 L138.241969,12.1913876 L143.803144,18.1626794 C143.901572,18.3119617 144,18.5110048 144,18.7100478 Z" id="XMLID_361_"></path>
                                            <path d="M157.336979,12.6392344 C157.189337,12.7885167 156.992481,12.8382775 156.795625,12.8382775 L147.149692,12.8382775 C147.149692,13.8832536 147.346548,14.7789474 147.789474,15.6248804 C148.183185,16.4210526 148.822967,17.0679426 149.561176,17.5655502 C150.348599,18.0631579 151.23445,18.262201 152.317157,18.262201 C153.153794,18.262201 153.842789,18.1129187 154.531784,17.7645933 C155.171565,17.4162679 155.712919,16.9684211 156.10663,16.4708134 C156.303486,16.3215311 156.451128,16.2220096 156.647984,16.2220096 C156.795625,16.2220096 156.992481,16.2717703 157.090909,16.4210526 C157.238551,16.5703349 157.287765,16.7196172 157.287765,16.8688995 C157.287765,17.0679426 157.189337,17.2172249 157.041695,17.4162679 C156.500342,18.0631579 155.811347,18.6602871 154.97471,19.0583732 C154.138072,19.5062201 153.252221,19.7052632 152.36637,19.7052632 C151.037594,19.7052632 149.905673,19.4066986 148.87218,18.8593301 C147.887902,18.3119617 147.100478,17.5157895 146.509911,16.4708134 C145.968558,15.4258373 145.673274,14.2813397 145.673274,12.937799 C145.673274,11.5444976 145.968558,10.3004785 146.509911,9.25550239 C147.051265,8.21052632 147.789474,7.3645933 148.724539,6.81722488 C149.659604,6.26985646 150.643882,5.97129187 151.677375,5.97129187 C152.710868,5.97129187 153.645933,6.22009569 154.531784,6.71770335 C155.417635,7.215311 156.155844,7.91196172 156.697198,8.85741627 C157.238551,9.80287081 157.533835,10.8976077 157.583049,12.1416268 C157.533835,12.3406699 157.484621,12.4899522 157.336979,12.6392344 Z M148.87218,8.50909091 C148.035543,9.20574163 147.49419,10.2009569 147.24812,11.4947368 L155.958988,11.4947368 L155.958988,11.2956938 C155.86056,10.4995215 155.614491,9.85263158 155.171565,9.25550239 C154.72864,8.65837321 154.2365,8.26028708 153.596719,7.96172249 C152.956938,7.66315789 152.317157,7.5138756 151.628161,7.5138756 C150.643882,7.46411483 149.708817,7.81244019 148.87218,8.50909091 Z" id="XMLID_358_" fill-rule="nonzero"></path>
                                            <path d="M162.209159,19.2574163 C162.061517,19.4066986 161.864662,19.4564593 161.667806,19.4564593 C161.421736,19.4564593 161.274094,19.4066986 161.126452,19.2574163 C160.978811,19.108134 160.929597,18.9090909 160.929597,18.7100478 L160.929597,1.14449761 C160.929597,0.945454545 160.978811,0.746411483 161.126452,0.597129187 C161.274094,0.44784689 161.47095,0.398086124 161.667806,0.398086124 C161.864662,0.398086124 162.061517,0.44784689 162.209159,0.597129187 C162.356801,0.746411483 162.406015,0.945454545 162.406015,1.14449761 L162.406015,18.7100478 C162.406015,18.9588517 162.356801,19.108134 162.209159,19.2574163 Z" id="XMLID_356_"></path>
                                            <path d="M168.065619,19.2574163 C167.917977,19.4066986 167.721121,19.4564593 167.524265,19.4564593 C167.278195,19.4564593 167.130554,19.4066986 166.982912,19.2574163 C166.83527,19.108134 166.786056,18.9090909 166.786056,18.7100478 L166.786056,1.14449761 C166.786056,0.945454545 166.83527,0.746411483 166.982912,0.597129187 C167.130554,0.44784689 167.327409,0.398086124 167.524265,0.398086124 C167.721121,0.398086124 167.917977,0.44784689 168.065619,0.597129187 C168.21326,0.746411483 168.262474,0.945454545 168.262474,1.14449761 L168.262474,18.7100478 C168.262474,18.9588517 168.21326,19.108134 168.065619,19.2574163 Z" id="XMLID_354_"></path>
                                            <path d="M183.026658,12.6392344 C182.879016,12.7885167 182.68216,12.8382775 182.485304,12.8382775 L172.839371,12.8382775 C172.839371,13.8832536 173.036227,14.7789474 173.479152,15.6248804 C173.872864,16.4210526 174.512645,17.0679426 175.250854,17.5655502 C176.038278,18.0631579 176.924129,18.262201 178.006835,18.262201 C178.843472,18.262201 179.532468,18.1129187 180.221463,17.7645933 C180.861244,17.4162679 181.402597,16.9684211 181.796309,16.4708134 C181.993165,16.3215311 182.140807,16.2220096 182.337662,16.2220096 C182.485304,16.2220096 182.68216,16.2717703 182.780588,16.4210526 C182.92823,16.5703349 182.977444,16.7196172 182.977444,16.8688995 C182.977444,17.0679426 182.879016,17.2172249 182.731374,17.4162679 C182.190021,18.0631579 181.501025,18.6602871 180.664388,19.0583732 C179.827751,19.5062201 178.9419,19.7052632 178.056049,19.7052632 C176.727273,19.7052632 175.595352,19.4066986 174.561859,18.8593301 C173.57758,18.3119617 172.790157,17.5157895 172.19959,16.4708134 C171.658237,15.4258373 171.362953,14.2813397 171.362953,12.937799 C171.362953,11.5444976 171.658237,10.3004785 172.19959,9.25550239 C172.740943,8.21052632 173.479152,7.3645933 174.414217,6.81722488 C175.349282,6.26985646 176.333561,5.97129187 177.367054,5.97129187 C178.400547,5.97129187 179.335612,6.22009569 180.221463,6.71770335 C181.107314,7.215311 181.845523,7.91196172 182.386876,8.85741627 C182.92823,9.80287081 183.223513,10.8976077 183.272727,12.1416268 C183.272727,12.3406699 183.174299,12.4899522 183.026658,12.6392344 Z M174.561859,8.50909091 C173.725222,9.20574163 173.183869,10.2009569 172.937799,11.4947368 L181.648667,11.4947368 L181.648667,11.2956938 C181.550239,10.4995215 181.30417,9.85263158 180.861244,9.25550239 C180.418319,8.65837321 179.926179,8.26028708 179.286398,7.96172249 C178.646617,7.66315789 178.006835,7.5138756 177.31784,7.5138756 C176.333561,7.46411483 175.398496,7.81244019 174.561859,8.50909091 Z" id="XMLID_351_" fill-rule="nonzero"></path>
                                            <path d="M196.068353,7.3645933 C196.806562,8.31004785 197.200273,9.55406699 197.200273,11.0966507 L197.200273,18.7100478 C197.200273,18.9588517 197.101846,19.108134 196.954204,19.2574163 C196.806562,19.4066986 196.609706,19.4564593 196.41285,19.4564593 C196.166781,19.4564593 196.019139,19.4066986 195.871497,19.2574163 C195.723855,19.108134 195.674641,18.9090909 195.674641,18.7100478 L195.674641,11.1961722 C195.674641,10.1014354 195.379357,9.15598086 194.838004,8.45933014 C194.296651,7.76267943 193.4108,7.41435407 192.278879,7.41435407 C191.54067,7.41435407 190.851675,7.56363636 190.211893,7.91196172 C189.572112,8.26028708 189.030759,8.70813397 188.637047,9.30526316 C188.243336,9.90239234 188.04648,10.4995215 188.04648,11.1961722 L188.04648,18.7100478 C188.04648,18.9588517 187.997266,19.108134 187.849624,19.2574163 C187.701982,19.4066986 187.505126,19.4564593 187.308271,19.4564593 C187.111415,19.4564593 186.914559,19.4066986 186.766917,19.2574163 C186.619275,19.108134 186.570062,18.9090909 186.570062,18.7100478 L186.570062,7.16555024 C186.570062,6.96650718 186.619275,6.76746411 186.766917,6.61818182 C186.914559,6.46889952 187.111415,6.41913876 187.308271,6.41913876 C187.505126,6.41913876 187.701982,6.46889952 187.849624,6.61818182 C187.997266,6.76746411 188.04648,6.96650718 188.04648,7.16555024 L188.04648,8.60861244 C188.489405,7.86220096 189.178401,7.26507177 190.015038,6.76746411 C190.851675,6.26985646 191.737526,6.02105263 192.672591,6.02105263 C194.149009,5.97129187 195.330144,6.46889952 196.068353,7.3645933 Z" id="XMLID_349_"></path>
                                        </g>
                                    </g>
                                    <g id="XMLID_3_" transform="translate(191.442242, 22.392344)" fill="#FFFFFF">
                                        <polygon id="XMLID_54_" points="0.344497608 27.1196172 5.61038961 0.398086124 10.6794258 0.398086124 15.6500342 20.7004785 28.4456596 0.398086124 33.367054 0.398086124 28.101162 27.1196172 23.5734792 27.1196172 27.2645249 8.50909091 16.4374573 27.1196172 12.254272 27.1196172 8.61244019 8.50909091 4.9213944 27.1196172"></polygon>
                                        <path d="M33.8591934,13.7837321 C35.6308954,4.72727273 40.9460014,0.199043062 49.8045113,0.199043062 C58.5153794,0.199043062 61.9603554,4.72727273 60.1886535,13.7837321 C58.4169515,22.7904306 53.1510595,27.3186603 44.4401914,27.3186603 C35.975393,27.3186603 32.4319891,22.7904306 33.8591934,13.7837321 Z M45.2768284,22.9894737 C50.5919344,22.9894737 53.8892686,19.9043062 55.1196172,13.6842105 C56.3499658,7.56363636 54.2829802,4.52822967 48.9678742,4.52822967 C43.5051265,4.52822967 40.1585783,7.56363636 38.9774436,13.6842105 C37.6978811,19.9043062 39.8140807,22.9894737 45.2768284,22.9894737 Z" id="XMLID_41_" fill-rule="nonzero"></path>
                                        <path d="M59.8933698,27.1196172 L65.1592618,0.398086124 L77.5611757,0.398086124 C82.5809979,0.398086124 84.6971975,2.48803828 83.8605605,6.61818182 C83.2699932,9.65358852 81.2030075,11.8430622 77.6596036,13.1368421 C81.0061517,13.7837321 82.3841422,15.8239234 81.695147,19.2076555 C80.6616541,24.4822967 77.3643199,27.1196172 71.8523582,27.1196172 L59.8933698,27.1196172 Z M72.5413534,22.8401914 C74.7067669,22.8401914 76.0355434,21.6956938 76.4784689,19.4564593 C77.0198223,16.6698565 75.6910458,15.276555 72.4429255,15.276555 L70.9665072,15.276555 L71.6062884,12.091866 C75.7894737,11.3952153 78.2009569,9.70334928 78.7423103,6.91674641 C79.037594,5.42392344 78.2501709,4.67751196 76.429255,4.67751196 L69.2440191,4.67751196 L65.6514012,22.7904306 L72.5413534,22.7904306 L72.5413534,22.8401914 Z" id="XMLID_37_" fill-rule="nonzero"></path>
                                        <polygon id="XMLID_29_" points="92.9651401 0.398086124 87.6992481 27.1196172 82.7778537 27.1196172 88.0929597 0.398086124"></polygon>
                                        <polygon id="XMLID_4_" points="101.922078 0.398086124 97.492823 22.8401914 107.975393 22.8401914 107.138756 27.1196172 91.7347915 27.1196172 97.0006835 0.398086124"></polygon>
                                    </g>
                                </g>
                            </g>
                        </g>
                    </g>
                </g>
            </g>
        </g>
    </g>
</svg>