<?xml version="1.0" encoding="utf-8"?>
<!-- Generator: Adobe Illustrator 21.1.0, SVG Export Plug-In . SVG Version: 6.00 Build 0)  -->
<svg version="1.1" id="Layer_1" xmlns="http://www.w3.org/2000/svg" xmlns:xlink="http://www.w3.org/1999/xlink" x="0px" y="0px"
	 viewBox="0 0 24 24" style="enable-background:new 0 0 24 24;" xml:space="preserve">
<style type="text/css">
	.st0{fill:#FFFFFF;}
</style>
<path class="st0" d="M16.5,7L16,9H0.8L0,7H16.5z M2.5,13h12.3l0.6-2H1.7C1.7,11,2.5,13,2.5,13z M8.5,18C7.7,18,7,18.7,7,19.5
	C7,20.3,7.7,21,8.5,21s1.5-0.7,1.5-1.5C10,18.7,9.3,18,8.5,18z M19.8,3l-3.4,12h-13l0.8,2h13.7l3.5-12h1.9L24,3H19.8z M13.5,18
	c-0.8,0-1.5,0.7-1.5,1.5s0.7,1.5,1.5,1.5s1.5-0.7,1.5-1.5C15,18.7,14.3,18,13.5,18z"/>
</svg>
